<svg width="146" height="30" viewBox="0 0 146 30" fill="none" xmlns="http://www.w3.org/2000/svg">
<g clip-path="url(#clip0_4209_11018)">
<path d="M142.345 30V12.6186L133.001 21.4361H132.633L123.364 12.6186V30H119.671V5.06598H120.188L132.818 16.701L145.446 5.06598H146V30H142.345Z" fill="#2C2E87"/>
<path d="M102.955 3.07732C102.16 3.07732 101.438 2.38918 101.438 1.55722C101.438 0.725258 102.16 0 102.955 0C103.822 0 104.545 0.688144 104.545 1.55722C104.545 2.42629 103.822 3.07732 102.955 3.07732Z" fill="#DC0D15"/>
<path d="M108.578 3.07732C106.523 3.02474 106.56 0.0448454 108.578 0C110.593 0 110.629 3.06804 108.578 3.07732Z" fill="#DC0D15"/>
<path d="M116.073 20.8794C116.073 26.9335 111.63 29.9954 105.742 29.9954C99.8536 29.9954 95.4837 26.8964 95.4837 20.8794V5.06134H99.059V20.9149C99.059 24.7701 101.877 26.9691 105.742 26.9691C109.607 26.9691 112.46 24.8799 112.46 20.8794V5.06134H116.073V20.8794Z" fill="#2C2E87"/>
<path d="M78.4037 26.8191H91.5135V30H72.4214V29.4077L86.011 8.20979H72.7901V5.06598H91.9193V5.69381L78.4037 26.8191Z" fill="#2C2E87"/>
<path d="M60.614 8.20979H52.712V16.4227H60.2822C63.052 16.4227 65.2678 15.2026 65.2678 12.1314C65.2678 9.76392 63.5319 8.20979 60.6155 8.20979H60.614ZM64.5657 30L57.3643 19.4196H52.712V30H49.0195V5.06598H60.8362C65.7106 5.06598 69.0714 7.6933 69.0714 12.0588C69.0714 16.1644 66.2646 18.3851 62.8668 18.9402L61.316 19.1258L69.0714 30.0015H64.5657V30Z" fill="#2C2E87"/>
<path d="M35.4206 5.06134H32.0228L21.7199 29.9954H25.6408L33.7079 9.61083L41.7749 29.9954H45.7236L35.4206 5.06134Z" fill="#2C2E87"/>
<path d="M13.0002 29.9954C5.64138 29.9954 0 25.1134 0 17.3521C0 9.59072 5.5025 5.06134 12.8613 5.06134C14.858 5.06134 16.9257 5.30722 18.7835 5.79897L18.4332 8.92423C16.8562 8.43247 15.2098 8.1866 13.3875 8.1866C7.28935 8.1866 3.68017 11.5933 3.68017 17.318C3.68017 23.0428 7.7106 26.9057 13.5279 26.9057C15.0694 26.9057 16.8223 26.6598 18.2944 26.0629L18.5752 29.1541C16.7529 29.7866 14.8256 29.9969 13.0033 29.9969L13.0002 29.9954Z" fill="#2C2E87"/>
</g>
<defs>
<clipPath id="clip0_4209_11018">
<rect width="146" height="30" fill="white"/>
</clipPath>
</defs>
</svg>
