<svg width="256" height="176" viewBox="0 0 256 176" fill="none" xmlns="http://www.w3.org/2000/svg">
<path d="M0 4C0 1.79086 1.79086 0 4 0C6.20914 0 8 1.79086 8 4C8 6.20914 6.20914 8 4 8C1.79086 8 0 6.20914 0 4Z" fill="#e8e9f1"/>
<path d="M34 4C34 1.79086 35.7909 0 38 0C40.2091 0 42 1.79086 42 4C42 6.20914 40.2091 8 38 8C35.7909 8 34 6.20914 34 4Z" fill="#e8e9f1"/>
<path d="M68 4C68 1.79086 69.7909 0 72 0C74.2091 0 76 1.79086 76 4C76 6.20914 74.2091 8 72 8C69.7909 8 68 6.20914 68 4Z" fill="#e8e9f1"/>
<path d="M102 4C102 1.79086 103.791 0 106 0C108.209 0 110 1.79086 110 4C110 6.20914 108.209 8 106 8C103.791 8 102 6.20914 102 4Z" fill="#e8e9f1"/>
<path d="M136 4C136 1.79086 137.791 0 140 0C142.209 0 144 1.79086 144 4C144 6.20914 142.209 8 140 8C137.791 8 136 6.20914 136 4Z" fill="#e8e9f1"/>
<path d="M170 4C170 1.79086 171.791 0 174 0C176.209 0 178 1.79086 178 4C178 6.20914 176.209 8 174 8C171.791 8 170 6.20914 170 4Z" fill="#e8e9f1"/>
<path d="M204 4C204 1.79086 205.791 0 208 0C210.209 0 212 1.79086 212 4C212 6.20914 210.209 8 208 8C205.791 8 204 6.20914 204 4Z" fill="#e8e9f1"/>
<path d="M238 4C238 1.79086 239.791 0 242 0C244.209 0 246 1.79086 246 4C246 6.20914 244.209 8 242 8C239.791 8 238 6.20914 238 4Z" fill="#e8e9f1"/>
<path d="M0 28C0 25.7909 1.79086 24 4 24C6.20914 24 8 25.7909 8 28C8 30.2091 6.20914 32 4 32C1.79086 32 0 30.2091 0 28Z" fill="#e8e9f1"/>
<path d="M34 28C34 25.7909 35.7909 24 38 24C40.2091 24 42 25.7909 42 28C42 30.2091 40.2091 32 38 32C35.7909 32 34 30.2091 34 28Z" fill="#e8e9f1"/>
<path d="M68 28C68 25.7909 69.7909 24 72 24C74.2091 24 76 25.7909 76 28C76 30.2091 74.2091 32 72 32C69.7909 32 68 30.2091 68 28Z" fill="#e8e9f1"/>
<path d="M102 28C102 25.7909 103.791 24 106 24C108.209 24 110 25.7909 110 28C110 30.2091 108.209 32 106 32C103.791 32 102 30.2091 102 28Z" fill="#e8e9f1"/>
<path d="M136 28C136 25.7909 137.791 24 140 24C142.209 24 144 25.7909 144 28C144 30.2091 142.209 32 140 32C137.791 32 136 30.2091 136 28Z" fill="#e8e9f1"/>
<path d="M170 28C170 25.7909 171.791 24 174 24C176.209 24 178 25.7909 178 28C178 30.2091 176.209 32 174 32C171.791 32 170 30.2091 170 28Z" fill="#e8e9f1"/>
<path d="M204 28C204 25.7909 205.791 24 208 24C210.209 24 212 25.7909 212 28C212 30.2091 210.209 32 208 32C205.791 32 204 30.2091 204 28Z" fill="#e8e9f1"/>
<path d="M238 28C238 25.7909 239.791 24 242 24C244.209 24 246 25.7909 246 28C246 30.2091 244.209 32 242 32C239.791 32 238 30.2091 238 28Z" fill="#e8e9f1"/>
<path d="M0 52C0 49.7909 1.79086 48 4 48C6.20914 48 8 49.7909 8 52C8 54.2091 6.20914 56 4 56C1.79086 56 0 54.2091 0 52Z" fill="#e8e9f1"/>
<path d="M34 52C34 49.7909 35.7909 48 38 48C40.2091 48 42 49.7909 42 52C42 54.2091 40.2091 56 38 56C35.7909 56 34 54.2091 34 52Z" fill="#e8e9f1"/>
<path d="M68 52C68 49.7909 69.7909 48 72 48C74.2091 48 76 49.7909 76 52C76 54.2091 74.2091 56 72 56C69.7909 56 68 54.2091 68 52Z" fill="#e8e9f1"/>
<path d="M102 52C102 49.7909 103.791 48 106 48C108.209 48 110 49.7909 110 52C110 54.2091 108.209 56 106 56C103.791 56 102 54.2091 102 52Z" fill="#e8e9f1"/>
<path d="M136 52C136 49.7909 137.791 48 140 48C142.209 48 144 49.7909 144 52C144 54.2091 142.209 56 140 56C137.791 56 136 54.2091 136 52Z" fill="#e8e9f1"/>
<path d="M170 52C170 49.7909 171.791 48 174 48C176.209 48 178 49.7909 178 52C178 54.2091 176.209 56 174 56C171.791 56 170 54.2091 170 52Z" fill="#e8e9f1"/>
<path d="M204 52C204 49.7909 205.791 48 208 48C210.209 48 212 49.7909 212 52C212 54.2091 210.209 56 208 56C205.791 56 204 54.2091 204 52Z" fill="#e8e9f1"/>
<path d="M238 52C238 49.7909 239.791 48 242 48C244.209 48 246 49.7909 246 52C246 54.2091 244.209 56 242 56C239.791 56 238 54.2091 238 52Z" fill="#e8e9f1"/>
<path d="M0 76C0 73.7909 1.79086 72 4 72C6.20914 72 8 73.7909 8 76C8 78.2091 6.20914 80 4 80C1.79086 80 0 78.2091 0 76Z" fill="#e8e9f1"/>
<path d="M34 76C34 73.7909 35.7909 72 38 72C40.2091 72 42 73.7909 42 76C42 78.2091 40.2091 80 38 80C35.7909 80 34 78.2091 34 76Z" fill="#e8e9f1"/>
<path d="M68 76C68 73.7909 69.7909 72 72 72C74.2091 72 76 73.7909 76 76C76 78.2091 74.2091 80 72 80C69.7909 80 68 78.2091 68 76Z" fill="#e8e9f1"/>
<path d="M102 76C102 73.7909 103.791 72 106 72C108.209 72 110 73.7909 110 76C110 78.2091 108.209 80 106 80C103.791 80 102 78.2091 102 76Z" fill="#e8e9f1"/>
<path d="M136 76C136 73.7909 137.791 72 140 72C142.209 72 144 73.7909 144 76C144 78.2091 142.209 80 140 80C137.791 80 136 78.2091 136 76Z" fill="#e8e9f1"/>
<path d="M170 76C170 73.7909 171.791 72 174 72C176.209 72 178 73.7909 178 76C178 78.2091 176.209 80 174 80C171.791 80 170 78.2091 170 76Z" fill="#e8e9f1"/>
<path d="M204 76C204 73.7909 205.791 72 208 72C210.209 72 212 73.7909 212 76C212 78.2091 210.209 80 208 80C205.791 80 204 78.2091 204 76Z" fill="#e8e9f1"/>
<path d="M238 76C238 73.7909 239.791 72 242 72C244.209 72 246 73.7909 246 76C246 78.2091 244.209 80 242 80C239.791 80 238 78.2091 238 76Z" fill="#e8e9f1"/>
<path d="M0 100C0 97.7909 1.79086 96 4 96C6.20914 96 8 97.7909 8 100C8 102.209 6.20914 104 4 104C1.79086 104 0 102.209 0 100Z" fill="#e8e9f1"/>
<path d="M34 100C34 97.7909 35.7909 96 38 96C40.2091 96 42 97.7909 42 100C42 102.209 40.2091 104 38 104C35.7909 104 34 102.209 34 100Z" fill="#e8e9f1"/>
<path d="M68 100C68 97.7909 69.7909 96 72 96C74.2091 96 76 97.7909 76 100C76 102.209 74.2091 104 72 104C69.7909 104 68 102.209 68 100Z" fill="#e8e9f1"/>
<path d="M102 100C102 97.7909 103.791 96 106 96C108.209 96 110 97.7909 110 100C110 102.209 108.209 104 106 104C103.791 104 102 102.209 102 100Z" fill="#e8e9f1"/>
<path d="M136 100C136 97.7909 137.791 96 140 96C142.209 96 144 97.7909 144 100C144 102.209 142.209 104 140 104C137.791 104 136 102.209 136 100Z" fill="#e8e9f1"/>
<path d="M170 100C170 97.7909 171.791 96 174 96C176.209 96 178 97.7909 178 100C178 102.209 176.209 104 174 104C171.791 104 170 102.209 170 100Z" fill="#e8e9f1"/>
<path d="M204 100C204 97.7909 205.791 96 208 96C210.209 96 212 97.7909 212 100C212 102.209 210.209 104 208 104C205.791 104 204 102.209 204 100Z" fill="#e8e9f1"/>
<path d="M238 100C238 97.7909 239.791 96 242 96C244.209 96 246 97.7909 246 100C246 102.209 244.209 104 242 104C239.791 104 238 102.209 238 100Z" fill="#e8e9f1"/>
<path d="M0 124C0 121.791 1.79086 120 4 120C6.20914 120 8 121.791 8 124C8 126.209 6.20914 128 4 128C1.79086 128 0 126.209 0 124Z" fill="#e8e9f1"/>
<path d="M34 124C34 121.791 35.7909 120 38 120C40.2091 120 42 121.791 42 124C42 126.209 40.2091 128 38 128C35.7909 128 34 126.209 34 124Z" fill="#e8e9f1"/>
<path d="M68 124C68 121.791 69.7909 120 72 120C74.2091 120 76 121.791 76 124C76 126.209 74.2091 128 72 128C69.7909 128 68 126.209 68 124Z" fill="#e8e9f1"/>
<path d="M102 124C102 121.791 103.791 120 106 120C108.209 120 110 121.791 110 124C110 126.209 108.209 128 106 128C103.791 128 102 126.209 102 124Z" fill="#e8e9f1"/>
<path d="M136 124C136 121.791 137.791 120 140 120C142.209 120 144 121.791 144 124C144 126.209 142.209 128 140 128C137.791 128 136 126.209 136 124Z" fill="#e8e9f1"/>
<path d="M170 124C170 121.791 171.791 120 174 120C176.209 120 178 121.791 178 124C178 126.209 176.209 128 174 128C171.791 128 170 126.209 170 124Z" fill="#e8e9f1"/>
<path d="M204 124C204 121.791 205.791 120 208 120C210.209 120 212 121.791 212 124C212 126.209 210.209 128 208 128C205.791 128 204 126.209 204 124Z" fill="#e8e9f1"/>
<path d="M238 124C238 121.791 239.791 120 242 120C244.209 120 246 121.791 246 124C246 126.209 244.209 128 242 128C239.791 128 238 126.209 238 124Z" fill="#e8e9f1"/>
<path d="M0 148C0 145.791 1.79086 144 4 144C6.20914 144 8 145.791 8 148C8 150.209 6.20914 152 4 152C1.79086 152 0 150.209 0 148Z" fill="#e8e9f1"/>
<path d="M34 148C34 145.791 35.7909 144 38 144C40.2091 144 42 145.791 42 148C42 150.209 40.2091 152 38 152C35.7909 152 34 150.209 34 148Z" fill="#e8e9f1"/>
<path d="M68 148C68 145.791 69.7909 144 72 144C74.2091 144 76 145.791 76 148C76 150.209 74.2091 152 72 152C69.7909 152 68 150.209 68 148Z" fill="#e8e9f1"/>
<path d="M102 148C102 145.791 103.791 144 106 144C108.209 144 110 145.791 110 148C110 150.209 108.209 152 106 152C103.791 152 102 150.209 102 148Z" fill="#e8e9f1"/>
<path d="M136 148C136 145.791 137.791 144 140 144C142.209 144 144 145.791 144 148C144 150.209 142.209 152 140 152C137.791 152 136 150.209 136 148Z" fill="#e8e9f1"/>
<path d="M170 148C170 145.791 171.791 144 174 144C176.209 144 178 145.791 178 148C178 150.209 176.209 152 174 152C171.791 152 170 150.209 170 148Z" fill="#e8e9f1"/>
<path d="M204 148C204 145.791 205.791 144 208 144C210.209 144 212 145.791 212 148C212 150.209 210.209 152 208 152C205.791 152 204 150.209 204 148Z" fill="#e8e9f1"/>
<path d="M238 148C238 145.791 239.791 144 242 144C244.209 144 246 145.791 246 148C246 150.209 244.209 152 242 152C239.791 152 238 150.209 238 148Z" fill="#e8e9f1"/>
<path d="M0 172C0 169.791 1.79086 168 4 168C6.20914 168 8 169.791 8 172C8 174.209 6.20914 176 4 176C1.79086 176 0 174.209 0 172Z" fill="#e8e9f1"/>
<path d="M34 172C34 169.791 35.7909 168 38 168C40.2091 168 42 169.791 42 172C42 174.209 40.2091 176 38 176C35.7909 176 34 174.209 34 172Z" fill="#e8e9f1"/>
<path d="M68 172C68 169.791 69.7909 168 72 168C74.2091 168 76 169.791 76 172C76 174.209 74.2091 176 72 176C69.7909 176 68 174.209 68 172Z" fill="#e8e9f1"/>
<path d="M102 172C102 169.791 103.791 168 106 168C108.209 168 110 169.791 110 172C110 174.209 108.209 176 106 176C103.791 176 102 174.209 102 172Z" fill="#e8e9f1"/>
<path d="M136 172C136 169.791 137.791 168 140 168C142.209 168 144 169.791 144 172C144 174.209 142.209 176 140 176C137.791 176 136 174.209 136 172Z" fill="#e8e9f1"/>
<path d="M170 172C170 169.791 171.791 168 174 168C176.209 168 178 169.791 178 172C178 174.209 176.209 176 174 176C171.791 176 170 174.209 170 172Z" fill="#e8e9f1"/>
<path d="M204 172C204 169.791 205.791 168 208 168C210.209 168 212 169.791 212 172C212 174.209 210.209 176 208 176C205.791 176 204 174.209 204 172Z" fill="#e8e9f1"/>
<path d="M238 172C238 169.791 239.791 168 242 168C244.209 168 246 169.791 246 172C246 174.209 244.209 176 242 176C239.791 176 238 174.209 238 172Z" fill="#e8e9f1"/>
</svg>
