<svg width="24" height="26" viewBox="0 0 24 26" fill="none" xmlns="http://www.w3.org/2000/svg">
<path d="M2.33731 15.1698C2.11654 15.1705 1.90008 15.1086 1.71309 14.9913C1.5261 14.8739 1.37625 14.7059 1.28095 14.5067C1.18565 14.3076 1.14882 14.0855 1.17473 13.8662C1.20063 13.647 1.28822 13.4396 1.42731 13.2681L12.9773 1.36812C13.0639 1.26811 13.182 1.20054 13.3121 1.17647C13.4422 1.15241 13.5767 1.1733 13.6933 1.23571C13.81 1.29811 13.902 1.39833 13.9542 1.51991C14.0064 1.64149 14.0157 1.77721 13.9806 1.90479L11.7406 8.92812C11.6746 9.1049 11.6524 9.29506 11.676 9.48229C11.6996 9.66953 11.7682 9.84825 11.8761 10.0031C11.9839 10.158 12.1277 10.2844 12.2951 10.3715C12.4625 10.4586 12.6486 10.5037 12.8373 10.5031H21.004C21.2247 10.5024 21.4412 10.5643 21.6282 10.6816C21.8152 10.799 21.965 10.967 22.0603 11.1662C22.1556 11.3653 22.1925 11.5874 22.1666 11.8067C22.1407 12.0259 22.0531 12.2333 21.914 12.4048L10.364 24.3048C10.2773 24.4048 10.1593 24.4724 10.0292 24.4964C9.89905 24.5205 9.76463 24.4996 9.64796 24.4372C9.53128 24.3748 9.43929 24.2746 9.38708 24.153C9.33488 24.0314 9.32555 23.8957 9.36064 23.7681L11.6006 16.7448C11.6667 16.568 11.6889 16.3778 11.6653 16.1906C11.6417 16.0034 11.573 15.8247 11.4652 15.6698C11.3574 15.5149 11.2136 15.3885 11.0462 15.3014C10.8787 15.2143 10.6927 15.1692 10.504 15.1698H2.33731Z" stroke="white" stroke-width="2.33333" stroke-linecap="round" stroke-linejoin="round"/>
</svg>
