<svg width="24" height="24" viewBox="0 0 24 24" fill="none" xmlns="http://www.w3.org/2000/svg">
<path d="M1.16666 14.0001H4.66666C5.28549 14.0001 5.87899 14.2459 6.31657 14.6835C6.75416 15.1211 6.99999 15.7146 6.99999 16.3334V19.8334C6.99999 20.4523 6.75416 21.0457 6.31657 21.4833C5.87899 21.9209 5.28549 22.1667 4.66666 22.1667H3.49999C2.88115 22.1667 2.28766 21.9209 1.85007 21.4833C1.41249 21.0457 1.16666 20.4523 1.16666 19.8334V11.6667C1.16666 8.88197 2.2729 6.21126 4.24203 4.24213C6.21117 2.27299 8.88188 1.16675 11.6667 1.16675C14.4514 1.16675 17.1221 2.27299 19.0913 4.24213C21.0604 6.21126 22.1667 8.88197 22.1667 11.6667V19.8334C22.1667 20.4523 21.9208 21.0457 21.4832 21.4833C21.0457 21.9209 20.4522 22.1667 19.8333 22.1667H18.6667C18.0478 22.1667 17.4543 21.9209 17.0167 21.4833C16.5792 21.0457 16.3333 20.4523 16.3333 19.8334V16.3334C16.3333 15.7146 16.5792 15.1211 17.0167 14.6835C17.4543 14.2459 18.0478 14.0001 18.6667 14.0001H22.1667" stroke="white" stroke-width="2.33333" stroke-linecap="round" stroke-linejoin="round"/>
</svg>
